<svg xmlns="http://www.w3.org/2000/svg" viewBox="0 0 128 128">
  <defs>
    <linearGradient id="bg" x1="22" y1="14" x2="106" y2="114" gradientUnits="userSpaceOnUse">
      <stop offset="0" stop-color="#0f766e"/>
      <stop offset="0.52" stop-color="#0f172a"/>
      <stop offset="1" stop-color="#020617"/>
    </linearGradient>
    <linearGradient id="lens" x1="42" y1="38" x2="88" y2="92" gradientUnits="userSpaceOnUse">
      <stop offset="0" stop-color="#ccfbf1"/>
      <stop offset="1" stop-color="#14b8a6"/>
    </linearGradient>
    <filter id="shadow" x="-20%" y="-20%" width="140%" height="150%">
      <feDropShadow dx="0" dy="10" stdDeviation="10" flood-color="#020617" flood-opacity="0.38"/>
    </filter>
  </defs>
  <rect x="12" y="12" width="104" height="104" rx="28" fill="url(#bg)"/>
  <path d="M31 39.5C31 34.8 34.8 31 39.5 31h49c4.7 0 8.5 3.8 8.5 8.5v49c0 4.7-3.8 8.5-8.5 8.5h-49C34.8 97 31 93.2 31 88.5v-49Z" fill="#0b1220" filter="url(#shadow)" opacity="0.92"/>
  <path d="M42 37h44c2.8 0 5 2.2 5 5v8H37v-8c0-2.8 2.2-5 5-5Z" fill="#1e293b"/>
  <circle cx="64" cy="67" r="25" fill="#020617"/>
  <circle cx="64" cy="67" r="18" fill="url(#lens)"/>
  <circle cx="58" cy="60" r="5.5" fill="#ecfeff" opacity="0.9"/>
  <path d="M91 23v18M82 32h18" stroke="#fb923c" stroke-width="8" stroke-linecap="round"/>
  <path d="M33 92h25M33 82h13" stroke="#5eead4" stroke-width="6" stroke-linecap="round"/>
</svg>
